<?xml version="1.0" encoding="iso-8859-1"?>
<!-- Uploaded to: SVG Repo, www.svgrepo.com, Generator: SVG Repo Mixer Tools -->
<svg fill="currentColor"  version="1.1" id="Layer_1" xmlns="http://www.w3.org/2000/svg" xmlns:xlink="http://www.w3.org/1999/xlink" 
	 viewBox="0 0 512 512" xml:space="preserve">
<g>
	<g>
		<path d="M502.915,121.666L448.236,66.98c-12.101-12.115-31.824-12.074-43.955,0.062L208.555,262.771L107.638,161.854
			c-12.091-12.091-31.768-12.071-43.869,0.02L9.085,216.56c-5.846,5.84-9.069,13.618-9.085,21.904
			c-0.01,8.309,3.209,16.109,9.064,21.964l190.624,190.619c2.419,2.419,5.724,3.386,8.867,2.92c0.511,0.076,1.022,0.117,1.538,0.117
			c2.652,0,5.304-1.012,7.329-3.037L502.855,165.62c5.886-5.885,9.135-13.69,9.145-21.984
			C512.015,135.334,508.786,127.53,502.915,121.666z M488.198,150.958L208.555,430.6L23.721,245.771
			c-1.933-1.933-2.991-4.514-2.991-7.273c0.005-2.758,1.078-5.344,3.011-7.283l54.684-54.683c2.014-2.016,4.656-3.018,7.298-3.018
			c2.627,0,5.258,0.997,7.258,2.997l108.246,108.244c3.887,3.887,10.77,3.887,14.657,0L418.938,81.697
			c4.054-4.039,10.618-4.089,14.642-0.061l54.68,54.691c1.948,1.943,3.016,4.529,3.011,7.278
			C491.265,146.369,490.177,148.98,488.198,150.958z"/>
	</g>
</g>
</svg>